<?xml version="1.0" standalone="no"?>
<!DOCTYPE svg PUBLIC "-//W3C//DTD SVG 20010904//EN"
 "http://www.w3.org/TR/2001/REC-SVG-20010904/DTD/svg10.dtd">
<svg version="1.0" xmlns="http://www.w3.org/2000/svg"
 width="145.000000pt" height="177.000000pt" viewBox="0 0 145.000000 177.000000"
 preserveAspectRatio="xMidYMid meet">

<g transform="translate(0.000000,177.000000) scale(0.100000,-0.100000)"
fill="#000000" stroke="none">
<path d="M525 1709 c-149 -8 -371 -34 -408 -48 -52 -20 -52 -17 -55 -420 -4
-415 2 -488 48 -619 48 -138 113 -243 215 -347 98 -100 175 -157 287 -210 101
-49 134 -47 250 13 206 105 342 243 439 445 83 174 82 168 87 658 3 409 2 437
-15 458 -15 18 -39 25 -148 42 -122 18 -431 40 -520 37 -22 0 -103 -4 -180 -9z
m530 -24 c199 -22 274 -34 296 -46 19 -10 20 -21 17 -462 l-4 -452 -30 -85
c-56 -153 -116 -252 -223 -363 -102 -107 -314 -236 -388 -237 -34 0 -211 94
-288 153 -110 84 -199 194 -261 322 -90 187 -94 212 -94 691 0 379 1 412 18
427 17 16 158 40 327 56 153 14 482 12 630 -4z"/>
<path d="M1044 1446 c-42 -19 -55 -32 -74 -70 -29 -60 -25 -138 12 -216 28
-61 127 -200 143 -200 15 0 115 138 144 200 20 43 26 71 26 126 0 62 -3 75
-29 108 -32 42 -94 75 -141 76 -16 0 -53 -11 -81 -24z m140 -85 c29 -25 38
-59 26 -97 -23 -69 -99 -86 -151 -35 -37 37 -38 79 -4 120 36 42 88 47 129 12z"/>
<path d="M255 1051 c-157 -90 -136 -299 51 -525 l57 -69 39 44 c99 113 178
279 178 373 -1 159 -183 258 -325 177z m165 -88 c54 -37 69 -86 43 -140 -21
-46 -54 -65 -106 -65 -35 1 -47 7 -74 36 -51 55 -42 129 19 166 40 24 85 26
118 3z"/>
<path d="M860 959 c-108 -33 -150 -67 -150 -120 0 -51 24 -81 134 -169 58 -46
108 -91 111 -99 13 -35 -23 -41 -231 -41 l-202 0 -26 -35 -27 -35 246 0 247 0
34 34 c39 39 45 84 16 127 -9 15 -65 66 -124 113 -60 48 -108 90 -108 94 1 22
27 36 126 63 60 17 115 32 123 35 18 6 -36 64 -58 63 -9 0 -59 -14 -111 -30z"/>
</g>
</svg>
